<?xml version="1.0" encoding="utf-8"?>
<!-- Generator: Adobe Illustrator 16.0.0, SVG Export Plug-In . SVG Version: 6.00 Build 0)  -->
<!DOCTYPE svg PUBLIC "-//W3C//DTD SVG 1.1//EN" "http://www.w3.org/Graphics/SVG/1.1/DTD/svg11.dtd">
<svg version="1.1" id="corvette" xmlns="http://www.w3.org/2000/svg" xmlns:xlink="http://www.w3.org/1999/xlink" x="0px" y="0px"
	 width="876.636px" height="366.355px" viewBox="0 0 876.636 366.355" enable-background="new 0 0 876.636 366.355"
	 xml:space="preserve">
<g id="car_parts">
	
		<path fill="#F5C200" stroke="#7a5000" stroke-width="2" stroke-linecap="round" stroke-linejoin="round" stroke-miterlimit="10" d="
		M60.425,87.912c-47.556-8.211-47.556-16.083,0-23.561c46.925-7.687,88.917-14.102,125.888-19.523
		c36.512-5.077,73.254-7.698,109.725-7.404c37.012-0.294,68.505,2.328,94.922,7.404c26.072,5.422,53.771,10.379,82.8,14.81
		c29.293,4.901,55.245,9.566,78.087,14.137c22.651,4.76,50.642,9.136,84.15,13.463c32.978,3.838,79.633,20.456,140.02,49.816
		c59.753,28.96,90.078,54.625,90.882,76.741c0.362,22.204-31.129,48.448-94.921,78.763
		c-54.401,26.051-194.721-68.324-235.055-85.991s-65.666-13.999-84-4.666s-33.197,21.161-46.766,29.247
		C380.256,220.901,182.17,138.491,162.75,123.59C141.469,107.986,107.35,96.032,60.425,87.912L60.425,87.912z"/>
	<path fill="#F5C200" stroke="#000000" stroke-width="2" stroke-miterlimit="10" d="M34.574,167.423
		c-20.828-9.405-29.868-22.528-26.926-39.717c2.893-16.638,6.97-31.799,12.115-45.104c5.355-13.521,22.266-15.856,51.164-7.405
		c28.26,9.045,76.08,21.001,143.387,36.351c66.831,14.977,113.487,23.724,140.021,26.255c25.953,2.134,56.863,5.923,92.229,11.444
		c35.784,4.979,70.483,13.728,104.341,26.254c33.798,11.968,81.573,34.215,138.002,74.051
		c45.349,32.014,52.015,36.681,45.775,58.565c-28.093,1.823-155.76,1.115-155.76,1.115l-1.334-47.667
		c0,0-10.793-4.205-22.333-18.666c-19.659-24.637-47.328-35.667-60.333-35.667c-26.667,0-35.001,7-46.334,17s-26.333,58-26.333,58
		s-172.313-39.652-245.639-64.321C102.978,193.595,55.737,176.68,34.574,167.423L34.574,167.423z"/>
	<path fill="none" stroke="#BFBFBF" stroke-width="1.248" stroke-miterlimit="10" d="M445.889,111.549
		c50.17,6.811,85.739,12.644,107.035,17.504c20.693,4.471,55.688,14.387,104.345,29.62 M501.761,95.393
		c42.115,4.887,75.068,9.845,98.96,14.81c23.93,5.532,59.217,16.907,105.689,34.333"/>
	<path fill="#1A3555" stroke="#000000" stroke-width="0.624" stroke-miterlimit="10" d="M519.267,83.277
		c5.458-4.024,9.322-12.377,9.322-12.377s-27.651-6.36-44-9.333c-19.189-2.993-37.137-5.736-56-9.333
		c-16.852-3.213-34.313-7.309-56-9.667c-24.9-2.707-54.731-5.686-83.667-4c-24.519,1.429-48.017,6.795-71.242,12.396
		c-50.844,12.283-78.839,21.032-84.147,26.254c-5.186,5.276,22.516,13.441,83.474,24.235
		c60.347,11.368,97.962,17.492,112.421,18.849c14.702,0.976,46.487-2.234,95.592-10.099
		C473.894,102.906,505.384,93.866,519.267,83.277L519.267,83.277z"/>
	<path fill="none" stroke="#000000" stroke-width="2" stroke-miterlimit="10" d="M210.121,100.432
		c-16.498,19.512-23.454,36.297-24.08,52.182c-0.54,15.611,1.747,37.898,9.944,71.55"/>
	
		<line fill="none" stroke="#000000" stroke-width="0.624" stroke-linecap="square" stroke-miterlimit="10" x1="767.67" y1="282.54" x2="779.785" y2="287.923"/>
	<path fill="#FFE860" stroke="#000000" stroke-width="1.248" stroke-linecap="square" stroke-miterlimit="10" d="M731.319,286.577
		L577.16,260.324c0,0,2.429,17.91,2.096,30.91s-2.333,23-2.333,23l163.993,12.061"/>
	<polygon fill="#6B6B6B" points="591.348,274.788 591.923,290.234 647.589,296.901 647.589,283.567 591.348,274.788 	"/>
	<path fill="#FFE860" stroke="#000000" stroke-width="1.248" stroke-linecap="square" stroke-miterlimit="10" d="M732.256,286.234
		c0,0,5.487,38.871,9.16,40.061s87.506-34.228,87.506-34.228s37.334-31.499,40.667-41.166c4-21.667-2-33.334-2-33.334
		l-46.508,33.967L732.256,286.234z"/>
	<path stroke="#000000" stroke-width="0.624" stroke-miterlimit="10" d="M189.922,222.567c-0.336,15-4.593,23.284-13.667,33.334
		c-11.403,12.629-52.147,13.173-52.147,13.173s66.813-62.84,20.48-106.84c-26.703-25.358-70.333,20.333-70.333,20.333l-5.177-1.143
		c1.219-30.248,14.224-47.497,34.84-51.021c21.51-3.29,39.3,1.95,53.18,16.15c13.74,13.44,16.677,36.707,18.157,70.347
		L189.922,222.567z"/>
	<path stroke="#808080" stroke-width="1.5" stroke-linecap="round" stroke-linejoin="round" stroke-miterlimit="10" d="
		M119.396,139.15c26.762,0.204,48.313,29.209,48.47,64.625c-0.157,36.049-21.708,65.046-48.47,65.3
		c-26.36-0.254-47.914-29.251-47.797-65.3C71.483,168.359,93.037,139.354,119.396,139.15L119.396,139.15z"/>
	<path fill="#FFFFFF" stroke="#000000" stroke-width="0.624" stroke-miterlimit="10" d="M119.396,160.017
		c18.07,0.335,32.568,19.928,32.311,43.759c0.257,24.459-14.241,44.055-32.311,43.758c-17.666,0.297-32.167-19.299-32.313-43.758
		C87.229,179.945,101.73,160.352,119.396,160.017L119.396,160.017z"/>
	<path stroke="#000000" stroke-width="0.624" stroke-miterlimit="10" d="M118.722,167.423c15.451-0.076,27.995,16.775,28.275,37.698
		c-0.28,20.609-12.824,37.46-28.275,37.7c-15.451-0.24-27.992-17.091-28.273-37.7C90.73,184.199,103.271,167.348,118.722,167.423
		L118.722,167.423z"/>
	<path fill="none" stroke="#FFFFFF" stroke-width="1.248" stroke-linecap="square" stroke-miterlimit="10" d="M139.592,174.154
		l-27.599,20.871 M122.088,164.058l-12.116,36.352 M104.585,168.77l5.387,43.758 M92.47,188.292l22.886,29.621 M89.103,212.528
		l32.985,5.385 M97.855,232.052l27.601-14.14 M113.337,244.165l17.503-35.004 M144.978,223.298l-22.89-31.641 M148.344,200.41
		l-36.351-14.137 M129.493,200.41l3.366,40.392"/>
	<path fill="#FFFFFF" stroke="#FFFFFF" stroke-width="0.624" stroke-miterlimit="10" d="M120.744,176.176
		c12.285-0.08,22.475,13.248,22.216,29.619c0.259,16.464-9.931,29.79-22.216,29.622c-12.825,0.168-23.015-13.158-22.889-29.622
		C97.729,189.423,107.919,176.096,120.744,176.176L120.744,176.176z"/>
	<path fill="#FFFFFF" stroke="#000000" stroke-width="0.624" stroke-miterlimit="10" d="M118.722,188.292
		c6.76,0.053,12.248,7.497,12.118,16.83c0.129,9.018-5.358,16.464-12.118,16.157c-6.76,0.307-12.246-7.14-12.116-16.157
		C106.476,195.789,111.962,188.344,118.722,188.292L118.722,188.292z"/>
	<path stroke="#000000" stroke-width="0.624" stroke-miterlimit="10" d="M121.415,188.292c6.21,0.053,11.305,7.106,11.444,15.484
		c-0.139,9.007-5.234,16.06-11.444,16.156c-6.344-0.097-11.441-7.149-11.443-16.156
		C109.974,195.398,115.071,188.344,121.415,188.292L121.415,188.292z"/>
	<polygon fill="#FFFFFF" stroke="#000000" stroke-width="1.248" stroke-miterlimit="10" points="744.256,289.567 748.818,304.078 
		795.946,286.577 788.54,270.421 743.438,287.923 	"/>
	
		<line fill="none" stroke="#808080" stroke-linecap="round" stroke-linejoin="round" stroke-miterlimit="10" x1="604.589" y1="309.234" x2="738.089" y2="321.567"/>
	
		<polyline fill="none" stroke="#404040" stroke-width="2" stroke-linecap="round" stroke-linejoin="round" stroke-miterlimit="10" points="
		867.089,216.567 820.563,250.534 732.256,285.234 709.922,281.567 577.589,258.901 	"/>
	<path opacity="0.7" fill="#242424" d="M358.589,8.567c-4.333-1-19.124-1.891-35.892-1.36c-17.055,0.635-34.846,2.678-53.182,6.059
		c-18.987,3.617-40.568,9.156-65.297,16.829c-24.259,7.492-45.544,15.073-63.952,22.887c-17.753,7.35-25.626,13.472-23.563,18.177
		c2.603,4.628,9.018,9.292,19.522,14.137c10.491,4.488,23.03,7.403,37.7,8.751c14.493,0.984,24.403-3.097,29.618-12.117
		c5.284-9.643,12.283-18.392,20.87-26.254c8.908-8.465,26.986-13.423,54.527-15.483c27.284-1.438,46.528-2.313,57.892-2.019
		c10.798-0.294,27.423-5.939,30.756-8.606s5.229-11.333,2.333-15.333C369.922,14.234,362.922,9.567,358.589,8.567z"/>
	<path stroke="#FFFFFF" stroke-width="0.624" stroke-linecap="square" stroke-miterlimit="10" d="M167.867,94.047
		c0,0,13.389-57.48,30.389-62.146s53.667-17,93-22.333s51-4,72.333-2.667s30.667,38.667,30.667,38.667l-4.333,1l-17-32.333
		c0,0-97.333,5.667-141,19.667c-12.667,6.333-23.667,66.878-23.667,66.878L167.867,94.047L167.867,94.047z"/>
	<polygon fill="#808080" points="788.691,270.921 787.191,282.54 746.782,296.675 744.589,288.401 	"/>
	<g>
		<polygon fill="#808080" points="842.302,243.811 865.363,226.436 866.279,242.922 845.957,257.212 		"/>
		<path d="M864.806,227.637l0.832,14.975l-19.313,13.579l-3.31-12.137L864.806,227.637 M865.922,225.234l-24.333,18.333l4,14.667
			l21.333-15L865.922,225.234L865.922,225.234z"/>
	</g>
	
		<line fill="none" stroke="#FFFFFF" stroke-linecap="round" stroke-linejoin="round" stroke-miterlimit="10" x1="864.589" y1="237.234" x2="846.922" y2="250.234"/>
	<path fill="#F5C200" stroke="#000000" stroke-width="2" stroke-linecap="square" stroke-miterlimit="10" d="M504.423,92.234
		c0,0,49.471,9.157,63.985,11.912s33.837,7.783,48.009,10.769s45.105,12.651,53.639,15.485s27.604,12.788,27.604,12.788
		l-44.736,14.379c0,0-41.334-16.333-54.834-20.333s-31.75-8.25-43.75-11s-33.75-7.25-48.25-9.75s-56.967-10.3-56.967-10.3"/>
	<path fill="none" stroke="#7a5000" stroke-width="2" stroke-linecap="round" stroke-linejoin="round" stroke-miterlimit="10" d="
		M20.589,159.234c-3-49.333,14.257-88.114,31.488-88.075"/>
	
		<line fill="none" stroke="#404040" stroke-width="2.495" stroke-linecap="square" stroke-miterlimit="10" x1="10.589" y1="120.234" x2="80.197" y2="143.188"/>
	<polygon fill="#E8B000" stroke="#000000" stroke-width="0.624" stroke-linecap="square" stroke-miterlimit="10" points="
		205.255,132.438 243.922,141.234 249.993,125.686 211.589,118.567 	"/>
	<polygon stroke="#000000" stroke-width="0.624" stroke-linecap="square" stroke-miterlimit="10" points="208.922,125.234 
		246.922,134.234 249.993,125.686 211.621,118.301 	"/>
	<path fill="none" stroke="#000000" stroke-width="2" stroke-linecap="square" stroke-miterlimit="10" d="M646.495,194.352
		c-12.513,5.365-13.097,11.489-2.014,18.176c11.075,7.308,20.992,13.724,29.617,19.524c8.871,5.863,14.703,9.362,17.503,10.77
		c3.035,0.928,8.867,0.051,17.503-2.694c8.857-3.085,13.815-6.003,14.809-8.752c1.342-3.081-3.617-8.328-14.809-16.155
		c-10.971-7.338-21.176-14.043-30.294-20.195C669.267,189.509,658.477,189.217,646.495,194.352L646.495,194.352z M758.246,150.595
		c-5.656,3.139-2.374,8.589,8.752,16.829c11.033,8.09,22.116,15.672,32.983,22.89c11.295,6.779,18.877,8.529,22.888,4.712
		c4.152-3.181,8.526-6.973,13.468-10.771c4.392-4.366-2.61-12.528-21.543-24.909c-18.39-12.117-28.431-18.226-32.984-17.501
		S763.902,147.456,758.246,150.595z"/>
	<path fill="#F5C200" stroke="#404040" stroke-width="2.495" stroke-miterlimit="10" d="M778.943,204.602
		c2.146,4.632-1.498,9.235-8.964,8.926c-7.019,0.31-14.697-6.558-16.794-11.426s1.947-9.702,8.794-9.426
		C769.589,192.984,776.798,199.97,778.943,204.602z"/>
	<polyline fill="none" stroke="#000000" stroke-width="2" stroke-miterlimit="10" points="664.922,273.901 689.922,250.567 
		799.422,225.901 850.922,185.234 	"/>
	<g>
		<polygon fill="#404040" points="429.819,228.661 169.598,167.856 168.663,165.426 430.384,226.231 		"/>
	</g>
	<path stroke="#969696" stroke-width="1.5" stroke-linecap="round" stroke-linejoin="round" stroke-miterlimit="10" d="
		M493.798,212.338c35.583,0.31,64.19,34.015,63.958,75.396c0.232,41.675-28.375,75.383-63.958,75.396
		c-34.921-0.014-63.528-33.722-63.276-75.396C430.27,246.353,458.877,212.648,493.798,212.338L493.798,212.338z"/>
	<path fill="#FFFFFF" stroke="#000000" stroke-width="0.624" stroke-miterlimit="10" d="M493.682,237.437
		c23.997-0.103,43.197,22.627,43.085,50.486c0.112,28.156-19.088,50.886-43.085,51.164c-23.328-0.278-42.535-23.008-42.408-51.164
		C451.146,260.064,470.354,237.334,493.682,237.437L493.682,237.437z"/>
	<path stroke="#000000" stroke-width="0.624" stroke-miterlimit="10" d="M493.682,244.165c21.095,0.168,37.946,19.763,37.703,43.759
		c0.243,24.295-16.608,43.888-37.703,43.756c-20.437,0.132-37.288-19.461-37.021-43.756
		C456.394,263.927,473.245,244.333,493.682,244.165L493.682,244.165z"/>
	<path fill="none" stroke="#FFFFFF" stroke-width="1.248" stroke-linecap="square" stroke-miterlimit="10" d="M521.284,252.918
		l-37.023,26.254 M498.397,240.801l-17.503,41.738 M474.161,247.534l6.733,51.159 M456.661,270.421l30.963,33.656 M454.64,298.693
		l41.736,5.385 M463.392,321.584l38.369-17.507 M486.279,335.047l24.232-41.739 M528.019,308.79l-31.643-35.002 M533.403,284.557
		l-49.143-15.481 M507.148,282.54l5.389,47.796"/>
	<path fill="#FFFFFF" stroke="#FFFFFF" stroke-width="0.624" stroke-miterlimit="10" d="M495.03,254.94
		c16.273-0.109,29.6,15.565,29.621,35.004c-0.021,19.191-13.348,34.87-29.621,35.006c-16.559-0.136-29.885-15.814-29.621-35.006
		C465.146,270.505,478.472,254.831,495.03,254.94L495.03,254.94z"/>
	<path fill="#FFFFFF" stroke="#000000" stroke-width="1.25" stroke-miterlimit="10" d="M493.682,269.076
		c9.509-0.254,16.95,8.371,16.83,18.848c0.12,10.77-7.321,19.395-16.83,19.523c-8.843-0.129-16.292-8.754-16.15-19.523
		C477.39,277.447,484.839,268.822,493.682,269.076L493.682,269.076z"/>
	<path stroke="#000000" stroke-width="0.624" stroke-miterlimit="10" d="M495.706,269.076c8.266-0.254,14.926,8.371,14.806,18.848
		c0.12,10.77-6.54,19.395-14.806,19.523c-8.152-0.129-14.812-8.754-14.812-19.523C480.895,277.447,487.554,268.822,495.706,269.076
		L495.706,269.076z"/>
	<path d="M453.339,113.109c0,0,5.322,0.646,24.82,4.639c9.747,2.015,21.118,4.366,33.302,6.885
		c6.091,1.266,12.385,2.573,18.78,3.902c6.394,1.345,12.895,2.644,19.385,4.064c12.957,2.856,25.914,5.713,38.062,8.391
		c6.082,1.282,11.937,2.774,17.461,4.153c5.525,1.409,10.749,2.742,15.571,3.972c9.636,2.493,17.651,4.626,23.246,6.187
		c2.797,0.78,4.988,1.417,6.476,1.886c0.744,0.235,1.312,0.427,1.693,0.577c0.191,0.076,0.336,0.139,0.441,0.199
		c0.057,0.035,0.093,0.051,0.147,0.113c0.016,0.013,0.048,0.061,0.057,0.125c0.006,0.05,0,0.071,0,0.071l-0.383-0.076
		c0,0-0.008,0.015-0.005,0.053c0.009,0.05,0.033,0.08,0.029,0.076c0.022,0.021-0.007-0.005-0.039-0.021
		c-0.072-0.04-0.208-0.099-0.391-0.167c-0.368-0.138-0.934-0.321-1.676-0.543c-1.485-0.445-3.683-1.049-6.488-1.787
		c-5.61-1.477-13.653-3.492-23.321-5.843c-4.838-1.159-10.078-2.415-15.621-3.742c-5.559-1.304-11.381-2.688-17.487-3.9
		c-12.181-2.523-25.173-5.214-38.166-7.905c-6.488-1.333-13.019-2.537-19.424-3.792c-6.41-1.238-12.719-2.457-18.824-3.637
		c-12.214-2.347-23.612-4.537-33.383-6.414c-19.552-3.719-32.587-6.199-32.587-6.199L453.339,113.109z"/>
	<path fill="#808080" stroke="#404040" stroke-width="1.248" stroke-miterlimit="10" d="M234.51,102.799l3.367-61.261
		c0,0,7.487-8.169,27.6-7.403c14.112,16.433,21.101,38.41,28.273,43.754c10.089,4.345,40.089,13.345,40.089,13.345l8.5-25
		l3.583-45.333c0,0,15.667-8.167,33.667-4.167c11.75,18.75,24.75,48.75,29.333,66.167c-22.083,8.083-44.417,23.5-50.083,27.833
		c-15.25,5.25-67.108,0.815-67.108,0.815L234.51,102.799L234.51,102.799z"/>
	<path fill="#FFFFFF" stroke="#000000" stroke-width="0.624" stroke-miterlimit="10" d="M300.481,92.701
		c11.867,0.872,24.113,6.416,37.025,16.829c12.75,10.581,10.124,15.829-8.078,16.156c-17.957-0.328-29.621-1.203-35.004-2.693
		c-5.114-2.006-8.324-7.55-9.425-16.829C283.77,96.782,289.017,92.407,300.481,92.701L300.481,92.701z"/>
	<path fill="#FFE860" d="M302.502,95.393c9.262,0.223,18.881,4.012,28.945,11.445c9.768,7.729,7.434,11.521-7.404,11.444
		c-14.324,0.078-23.653-0.505-27.6-1.347c-4.219-1.492-6.55-5.282-7.404-11.444C288.728,98.824,293.099,95.616,302.502,95.393
		L302.502,95.393z"/>
	<path fill="#404040" stroke="#000000" stroke-width="0.624" stroke-miterlimit="10" d="M348.089,120.234
		c53.698-0.954,101.015-4.5,138.862-13.396c28.638-8.104,44.638-23.104,47.138-36.354"/>
	<path fill="none" stroke="#000000" stroke-width="3" stroke-linecap="round" stroke-linejoin="round" stroke-miterlimit="10" d="
		M474.161,59.041c10.357-0.167,18.979,8.456,18.852,18.848c0.127,10.854-8.494,19.476-18.852,19.523
		c-10.893-0.047-19.514-8.669-19.521-19.523C454.647,67.497,463.269,58.874,474.161,59.041L474.161,59.041z"/>
	<path fill="#454545" stroke="#000000" stroke-width="1.25" stroke-miterlimit="10" d="M515.9,67.794
		c-36.176,2.159-56.387,4.536-75.312,6.773c-19.566,2.428-40.333,10.333-55,17.667s-38,27.75-38,27.75s18.25-0.25,30.75-0.5
		s37.115-3.854,48.75-5.25c12.5-1.5,37.75-3.25,47-5.75s21.166-7.083,28.333-10.417s17.417-9.167,22.417-12.833
		s5.25-9.75,5.083-14.667L515.9,67.794z"/>
	<path fill="none" stroke="#000000" stroke-width="0.624" stroke-linecap="square" stroke-miterlimit="10" d="M390.017,100.779
		 M426.37,27.401"/>
	<path fill="none" stroke="#000000" stroke-width="3.743" stroke-miterlimit="10" d="M296.589,41.567c0,0,76.667-6.667,107-11
		s58.667-16,58.667-16l69.667,56c0,0,7.333,50-183.334,50L296.589,41.567z"/>
	<polygon fill="#808080" points="27.844,135.784 55.445,146.554 53.922,156.567 27.844,146.554 27.844,135.784 	"/>
</g>
<path d="M430.089,226.234c0,0,46.409-35.689,85.167-26c33.333,8.333,55.833,30.333,62.167,61c0,0,3.832,28.667,0.166,47
	s-6.5,28-19.5,39s-58.5,15.5-58.5,15.5s37,0.5,55-47.833c0,0,5.506-17.253,4-37.334c-1.108-14.783-12-36.999-18.333-43.666
	s-32.167-33.667-71.667-16.667c0,0-36.5,17.5-39.5,67.5l-9.167-2.167"/>
<line fill="none" stroke="#8E8E8E" stroke-miterlimit="10" x1="541.756" y1="212.901" x2="497.256" y2="211.901"/>
<polyline fill="none" stroke="#000000" stroke-width="2" stroke-miterlimit="10" points="347.589,119.984 354.335,137.804 
	351.922,208.901 342.589,263.234 "/>
<path opacity="0.7" fill="#4D4D4D" d="M299.255,43.567c0,0,94-9.333,110.333-12c7.229-1.18,20-4,30.333-7.167s22.167-8,22.167-8
	l11.5,9.833c0,0-8.334,4.333-20,7.667c-11.667,3.333-25,6.333-37.667,8.333s-107,15-107,15L299.255,43.567z"/>
<path fill="none" stroke="#8C8C8C" stroke-linecap="round" stroke-linejoin="round" stroke-miterlimit="10" d="M231.922,33.9
	c0,0-10.334-3.333-36.667-0.333"/>
</svg>
